<svg width="31" height="31" viewBox="0 0 31 31" fill="none" xmlns="http://www.w3.org/2000/svg">
<path d="M29.0625 1.9375H23.25C23.25 0.864609 22.3835 0 21.3125 0H9.6875C8.61655 0 7.75 0.864609 7.75 1.9375H1.9375C0.866547 1.9375 0 2.80211 0 3.875V7.75C0 12.0299 3.47006 15.5 7.75 15.5C7.84106 15.5 7.92583 15.4753 8.01495 15.4714C8.711 18.198 10.8398 20.3307 13.5625 21.0364V27.125H9.6875C8.61655 27.125 7.75 27.9896 7.75 29.0625V31H23.25V29.0625C23.25 27.9896 22.3835 27.125 21.3125 27.125H17.4375V21.0364C20.1602 20.3307 22.289 18.1985 22.985 15.4719C23.0742 15.4753 23.1589 15.5 23.25 15.5C27.5299 15.5 31 12.0299 31 7.75V3.875C31 2.80211 30.1335 1.9375 29.0625 1.9375ZM3.875 7.75V5.8125H7.75V11.625C5.61003 11.625 3.875 9.88803 3.875 7.75ZM27.125 7.75C27.125 9.88803 25.39 11.625 23.25 11.625V5.8125H27.125V7.75Z" fill="#DEDEDE"/>
</svg>
