<svg width="31" height="26" viewBox="0 0 31 26" fill="none" xmlns="http://www.w3.org/2000/svg">
<path d="M14.0771 0.262819C14.9793 -0.0876062 16.0207 -0.0876062 16.9229 0.262819L30.1584 5.39223C30.673 5.59029 31 6.02198 31 6.49937C31 6.97676 30.673 7.40844 30.1584 7.60651L16.9229 12.7359C16.0207 13.0863 14.9793 13.0863 14.0771 12.7359L0.841602 7.60651C0.326953 7.40336 0 6.97168 0 6.49937C0 6.02705 0.326953 5.59029 0.841602 5.39223L14.0771 0.262819ZM26.9373 10.6435L30.1584 11.8929C30.673 12.0909 31 12.5226 31 13C31 13.4774 30.673 13.9091 30.1584 14.1071L16.9229 19.2365C16.0207 19.587 14.9793 19.587 14.0771 19.2365L0.841602 14.1071C0.326953 13.904 0 13.4723 0 13C0 12.5277 0.326953 12.0909 0.841602 11.8929L4.0627 10.6435L13.2658 14.2087C14.6826 14.7572 16.3174 14.7572 17.7342 14.2087L26.9373 10.6435ZM17.7342 20.7093L26.9373 17.1442L30.1584 18.3935C30.673 18.5916 31 19.0232 31 19.5006C31 19.978 30.673 20.4097 30.1584 20.6078L16.9229 25.7372C16.0207 26.0876 14.9793 26.0876 14.0771 25.7372L0.841602 20.6078C0.326953 20.4046 0 19.9729 0 19.5006C0 19.0283 0.326953 18.5916 0.841602 18.3935L4.0627 17.1442L13.2658 20.7093C14.6826 21.2578 16.3174 21.2578 17.7342 20.7093Z" fill="#DEDEDE"/>
</svg>
