<svg width="24" height="24" viewBox="0 0 24 24" fill="none" xmlns="http://www.w3.org/2000/svg">
<path d="M7.5 0C6.38906 0 5.41875 0.604687 4.90313 1.5H2.25C1.00781 1.5 0 2.50781 0 3.75V18.75C0 19.9922 1.00781 21 2.25 21H9V8.25C9 6.17812 10.6781 4.5 12.75 4.5H15V3.75C15 2.50781 13.9922 1.5 12.75 1.5H10.0969C9.58125 0.604687 8.61094 0 7.5 0ZM12.75 6C11.5078 6 10.5 7.00781 10.5 8.25V21.75C10.5 22.9922 11.5078 24 12.75 24H21.75C22.9922 24 24 22.9922 24 21.75V11.4328C24 10.8375 23.7609 10.2656 23.3391 9.84375L20.1562 6.66094C19.7344 6.23906 19.1625 6 18.5672 6H12.75ZM7.5 1.875C7.79837 1.875 8.08452 1.99353 8.2955 2.2045C8.50647 2.41548 8.625 2.70163 8.625 3C8.625 3.29837 8.50647 3.58452 8.2955 3.7955C8.08452 4.00647 7.79837 4.125 7.5 4.125C7.20163 4.125 6.91548 4.00647 6.7045 3.7955C6.49353 3.58452 6.375 3.29837 6.375 3C6.375 2.70163 6.49353 2.41548 6.7045 2.2045C6.91548 1.99353 7.20163 1.875 7.5 1.875Z" fill="white"/>
</svg>
